<svg width="202" height="202" viewBox="0 0 202 202" fill="none" xmlns="http://www.w3.org/2000/svg">
<circle opacity="0.202683" r="101" transform="matrix(0 -1 -1 0 101 101)" fill="url(#paint0_linear)"/>
<path d="M173.225 39.4858C172.23 39.4357 171.234 39.5705 170.288 39.8834C168.888 40.5048 167.525 43.7794 166.554 48.918C165.705 53.3684 165.34 57.8975 165.465 62.4264C165.492 63.24 165.909 63.9913 166.585 64.4458C170.941 67.5526 185.721 63.7561 187.289 63.3398C188.036 61.9106 194.844 48.5328 191.49 44.9351C188.54 41.7475 178.645 39.4858 173.225 39.4858Z" fill="white"/>
<path fill-rule="evenodd" clip-rule="evenodd" d="M166.212 64.9362C167.569 65.9179 169.834 66.2721 172.391 66.2721C178.348 66.2721 185.909 64.3457 187.366 63.9744C187.482 63.945 187.559 63.9253 187.594 63.9171C187.68 63.893 187.752 63.8345 187.793 63.7556L187.798 63.7461C188.194 63.0004 195.828 48.6249 191.962 44.4935C188.079 40.3428 173.661 37.7331 170.033 39.2865C166.405 40.8399 164.457 55.4418 164.824 62.4507C164.863 63.4528 165.379 64.3761 166.212 64.9362ZM170.288 39.883C171.234 39.5701 172.23 39.4352 173.225 39.4853C178.645 39.4853 188.54 41.747 191.489 44.9346C194.844 48.5323 188.036 61.9102 187.289 63.3393C185.721 63.7556 170.941 67.5521 166.585 64.4453C165.909 63.9908 165.492 63.2396 165.465 62.4259C165.339 57.8971 165.705 53.3679 166.554 48.9175C167.525 43.7789 168.888 40.5043 170.288 39.883Z" fill="#231F20"/>
<path d="M131.438 147.086C141.817 142.517 148.843 132.623 149.728 121.331L139.429 110.283L125.271 137.58" fill="white"/>
<path d="M131.438 147.409C131.286 147.404 131.159 147.293 131.132 147.144C131.105 146.994 131.186 146.846 131.326 146.788C141.513 142.242 148.432 132.541 149.404 121.443L139.51 110.83L125.564 137.722C125.473 137.859 125.294 137.905 125.147 137.831C125.001 137.756 124.934 137.584 124.992 137.43L139.149 110.134C139.196 110.041 139.287 109.978 139.391 109.966C139.494 109.949 139.599 109.984 139.671 110.059L149.97 121.113C150.033 121.18 150.064 121.27 150.057 121.362C149.106 132.758 142.013 142.732 131.55 147.384C131.516 147.401 131.477 147.41 131.438 147.409Z" fill="#231F20"/>
<path d="M163.362 163.963L194.514 163.36L194.084 124.189L148.34 125.836L141.974 163.963H163.362Z" fill="#231F20"/>
<path fill-rule="evenodd" clip-rule="evenodd" d="M141.974 164.273H163.362H163.368L194.52 163.652C194.603 163.65 194.681 163.616 194.738 163.557C194.795 163.497 194.827 163.418 194.825 163.335L194.396 124.19C194.396 124.104 194.36 124.023 194.296 123.966C194.234 123.911 194.155 123.88 194.072 123.879L148.327 125.526C148.179 125.53 148.056 125.64 148.035 125.786L141.669 163.913C141.651 164.002 141.676 164.094 141.737 164.162C141.795 164.232 141.882 164.274 141.974 164.273ZM163.362 163.652H142.341L148.601 126.134L193.78 124.506L194.203 163.031L163.362 163.652Z" fill="#231F20"/>
<path d="M200.519 80.731C197.731 76.9469 191.06 74.9524 186.567 74.2378C182.242 73.5543 177.911 74.2378 173.567 73.865C169.59 73.6326 165.601 74.0225 161.744 75.0207C147.251 79.0223 133.778 99.9745 133.778 99.9745L148.551 100.751C148.551 100.751 146.404 116.18 140.244 149.988C165.907 150.901 195.777 153.449 195.777 153.449C195.777 153.449 195.908 146.371 196.231 139.406C198.546 137.25 198.465 133.814 198.889 131.819C199.436 129.253 198.328 101.373 198.328 101.373L201.695 100.13C201.695 100.13 201.739 82.359 200.519 80.731Z" fill="#E7816B"/>
<path d="M166 80.3399L154.743 154.275L168.185 155.624L183.474 80.1846L166 80.3399Z" fill="#231F20"/>
<path fill-rule="evenodd" clip-rule="evenodd" d="M168.154 155.934H168.185C168.334 155.933 168.463 155.826 168.49 155.679L183.773 80.2461C183.791 80.1533 183.766 80.0572 183.705 79.9852C183.646 79.9118 183.556 79.8704 183.462 79.8733L165.994 80.0287C165.842 80.0297 165.714 80.14 165.689 80.2896L154.432 154.231C154.416 154.314 154.437 154.4 154.488 154.468C154.543 154.534 154.621 154.576 154.706 154.586L168.154 155.934ZM167.954 155.288L155.117 154.001L166.287 80.6438L183.089 80.4947L167.954 155.288Z" fill="#231F20"/>
<path d="M167.998 71.069L166.063 80.3397C166.063 80.3397 168.122 86.4974 174.364 85.845C178.099 85.4232 181.445 83.344 183.474 80.1844L185.69 63.1467C185.69 63.1467 181.527 60.158 184.153 50.6201C178.923 52.0777 173.397 52.1034 168.154 50.6947C168.154 50.6947 163.99 60.8663 164.096 65.6073C164.202 70.3483 167.998 71.069 167.998 71.069Z" fill="white"/>
<path fill-rule="evenodd" clip-rule="evenodd" d="M165.761 80.4493C165.86 80.7185 167.871 86.2182 173.462 86.2182C173.782 86.2185 174.102 86.1998 174.42 86.1623C178.257 85.745 181.693 83.6039 183.754 80.3463C183.777 80.3105 183.792 80.2702 183.798 80.2283L186.013 63.1906C186.032 63.0725 185.981 62.9541 185.883 62.8862C185.845 62.8613 181.931 59.9223 184.464 50.7013C184.496 50.5877 184.463 50.4656 184.377 50.3844C184.29 50.3041 184.165 50.2779 184.053 50.3161C178.882 51.7398 173.424 51.7634 168.241 50.3844C168.084 50.3447 167.922 50.427 167.861 50.577C167.687 50.9933 163.679 60.8667 163.779 65.6512C163.891 69.7895 166.666 71.0073 167.625 71.3056L165.758 80.2718C165.742 80.3266 165.742 80.3847 165.758 80.4396C165.758 80.4407 165.759 80.444 165.761 80.4493ZM174.333 85.5285C168.726 86.1063 166.666 81.0485 166.399 80.3153L168.309 71.1627C168.327 71.0765 168.309 70.9867 168.259 70.9141C168.212 70.844 168.138 70.7968 168.054 70.7836L168.049 70.7825C167.838 70.7393 164.506 70.0561 164.414 65.6574C164.329 61.5212 167.573 53.1104 168.3 51.2249C168.317 51.1815 168.333 51.1416 168.347 51.1052C173.383 52.3704 178.655 52.3704 183.692 51.1052C181.583 59.4003 184.601 62.6811 185.348 63.3025L183.163 80.0792C181.17 83.1086 177.938 85.1033 174.333 85.5285Z" fill="#231F20"/>
<path d="M182.186 62.3761C182.503 61.5731 183.073 60.8948 183.81 60.4437C184.513 60.0575 185.277 59.7948 186.069 59.667C186.495 59.5505 186.941 59.5293 187.376 59.6049C187.672 59.6975 187.948 59.8427 188.191 60.0336C188.796 60.4436 189.236 61.0529 189.436 61.7548C189.524 62.3388 189.471 62.9354 189.28 63.4946C189.124 64.1149 188.884 64.7108 188.565 65.2655C187.907 66.376 186.83 67.176 185.575 67.4856C184.321 67.7953 182.994 67.5886 181.894 66.9121" fill="white"/>
<path d="M184.439 67.9374C183.487 67.939 182.552 67.6789 181.738 67.1856C181.588 67.0921 181.541 66.8956 181.632 66.7444C181.676 66.6711 181.748 66.6185 181.831 66.5986C181.914 66.5788 182.002 66.5932 182.074 66.6388C183.106 67.2576 184.338 67.4494 185.509 67.1732C186.68 66.8812 187.688 66.137 188.31 65.104C188.612 64.5723 188.841 64.0015 188.988 63.4077C189.163 62.9011 189.214 62.3599 189.137 61.8295C188.953 61.2024 188.554 60.6595 188.011 60.2947C187.8 60.1251 187.56 59.9965 187.302 59.9157C186.916 59.8541 186.521 59.8753 186.144 59.9778C185.378 60.1005 184.637 60.3504 183.954 60.7172C183.276 61.1322 182.752 61.7559 182.46 62.4943C182.395 62.6659 182.203 62.7522 182.031 62.687C181.859 62.6217 181.772 62.4298 181.838 62.2582C182.184 61.3925 182.799 60.6607 183.593 60.1704C184.345 59.7651 185.162 59.4939 186.007 59.3689C186.48 59.2389 186.976 59.2198 187.457 59.313C187.795 59.4128 188.11 59.5774 188.384 59.7976C189.058 60.2471 189.546 60.9246 189.76 61.7052C189.856 62.3301 189.803 62.969 189.604 63.5693C189.44 64.2214 189.189 64.8485 188.857 65.4334C188.148 66.6125 187 67.4636 185.665 67.8007C185.263 67.8955 184.852 67.9414 184.439 67.9374Z" fill="#231F20"/>
<path d="M167.251 75.7046C169.474 76.2627 171.83 75.8321 173.711 74.5241C176.722 72.3182 176.691 70.7959 176.691 70.7959C176.691 70.7959 172.08 72.573 168.222 71.2495L167.251 75.7046Z" fill="#231F20"/>
<path fill-rule="evenodd" clip-rule="evenodd" d="M167.164 76.0025C167.837 76.1772 168.529 76.2629 169.224 76.2572C170.899 76.2672 172.533 75.7401 173.885 74.7536C176.996 72.4794 176.996 70.839 176.996 70.7706C176.997 70.6697 176.945 70.5758 176.859 70.5221C176.772 70.4757 176.667 70.4757 176.579 70.5221C176.536 70.5407 172.024 72.2122 168.322 70.9695C168.243 70.9325 168.152 70.9325 168.073 70.9695C167.995 71.0122 167.94 71.0874 167.923 71.1745L166.953 75.6421C166.916 75.7992 167.009 75.9572 167.164 76.0025ZM173.53 74.2751C171.808 75.4688 169.67 75.9025 167.618 75.4743L168.452 71.6468C171.539 72.5664 174.943 71.6903 176.25 71.2739C176.019 71.858 175.366 72.9268 173.53 74.2751Z" fill="#231F20"/>
<path d="M173.568 57.2002C173.568 57.2002 169.616 61.3571 170.226 62.3016C170.836 63.246 173.02 63.0969 173.02 63.0969" fill="white"/>
<path d="M172.559 63.3894C171.819 63.3894 170.481 63.2713 169.964 62.4697C169.292 61.4383 172.099 58.288 173.337 56.9894C173.396 56.9305 173.475 56.8975 173.558 56.8975C173.641 56.8975 173.721 56.9305 173.779 56.9894C173.838 57.0466 173.871 57.125 173.871 57.2068C173.871 57.2887 173.838 57.367 173.779 57.4243C171.763 59.5494 170.22 61.7738 170.475 62.1466C170.885 62.768 172.466 62.8115 172.964 62.768C173.134 62.7536 173.283 62.8783 173.3 63.0476C173.307 63.1301 173.28 63.2119 173.227 63.2748C173.173 63.3378 173.096 63.3768 173.014 63.3831C172.989 63.3769 172.802 63.3894 172.559 63.3894Z" fill="#231F20"/>
<ellipse cx="178.918" cy="57.9748" rx="1.11247" ry="0.790145" transform="rotate(-68.08 178.918 57.9748)" fill="#231F20"/>
<ellipse cx="170.72" cy="56.636" rx="1.11247" ry="0.790145" transform="rotate(-68.08 170.72 56.636)" fill="#231F20"/>
<path d="M173.014 68.6337C172.695 68.6332 172.377 68.5935 172.068 68.5157C167.762 67.478 167.861 62.4574 167.861 62.4077C167.871 62.2376 168.014 62.1058 168.185 62.1094C168.267 62.1111 168.345 62.1456 168.401 62.2052C168.457 62.2648 168.487 62.3445 168.483 62.4263C168.483 62.6127 168.403 66.9933 172.217 67.9129C176.032 68.8326 177.917 62.8116 177.936 62.7494C177.962 62.6348 178.05 62.5444 178.164 62.5157C178.278 62.487 178.398 62.525 178.475 62.6139C178.552 62.7028 178.572 62.8274 178.527 62.9359C178.446 63.1844 176.698 68.6337 173.014 68.6337Z" fill="#231F20"/>
<path d="M36.9995 82.9805L60.2607 109.009L92.8066 120.374L88.6497 128.961C88.6497 128.961 67.5229 125.773 59.2029 124.841C50.8828 123.909 40.3661 111.433 40.3661 111.433L36.9995 82.9805Z" fill="white"/>
<path fill-rule="evenodd" clip-rule="evenodd" d="M88.6062 129.266H88.6497C88.7706 129.267 88.8804 129.196 88.9297 129.086L93.0929 120.474C93.1302 120.393 93.1302 120.3 93.0929 120.219C93.0598 120.138 92.9944 120.075 92.9124 120.045L60.4413 108.705L37.2298 82.7386C37.1388 82.6376 36.9926 82.6074 36.8689 82.664C36.7491 82.7224 36.6775 82.8483 36.6884 82.9809L40.055 111.47C40.0616 111.531 40.0878 111.587 40.1297 111.632C40.5591 112.148 50.8206 124.208 59.1656 125.146C65.347 125.843 78.7593 127.821 85.1227 128.76C87.2217 129.069 88.5537 129.266 88.6062 129.266ZM59.234 124.525C51.4554 123.649 41.5298 112.303 40.6649 111.296L37.4227 83.913L60.043 109.196C60.0782 109.236 60.1233 109.266 60.1737 109.283L92.3897 120.536L88.4817 128.614C86.1606 128.253 67.0127 125.401 59.234 124.525Z" fill="#231F20"/>
<path d="M48.2941 70.0748C47.9705 67.8938 47.0931 65.8371 46.4272 63.7431C44.747 58.6666 44.5043 53.4286 42.7433 48.3707C40.4843 41.8651 36.147 37.1303 28.5613 37.3975C25.4378 37.3996 22.6222 39.2771 21.4236 42.1571C17.833 40.1812 13.0475 44.2014 12.8795 47.8798C12.6306 53.3043 12.9791 57.9334 10.6144 63.072C8.82218 66.9742 6.04676 70.6278 5.81651 74.9152C5.58627 79.2025 8.01942 83.2103 11.5043 85.5777C14.9891 87.9451 19.3825 88.7342 23.5829 88.4235C27.7834 88.1128 31.8469 86.7707 35.7487 85.1676C37.6689 84.4259 39.5114 83.4977 41.2498 82.3963C45.2138 79.7493 49.0533 75.1202 48.2941 70.0748Z" fill="white"/>
<path fill-rule="evenodd" clip-rule="evenodd" d="M11.33 85.8326C14.4629 87.847 18.1277 88.8793 21.853 88.7965C22.4317 88.7965 23.0167 88.7779 23.5892 88.7468C28.219 88.4051 32.5688 86.8144 35.8483 85.466C37.7938 84.7199 39.6596 83.7811 41.4178 82.6637C45.4067 79.9856 49.3894 75.2944 48.6177 70.0439C48.3162 68.3927 47.8578 66.774 47.2487 65.2097C47.062 64.694 46.8815 64.172 46.7073 63.6563C45.9576 61.212 45.3693 58.7212 44.9462 56.2C44.4961 53.5167 43.8535 50.8691 43.0233 48.2777C40.391 40.7157 35.3754 36.8695 28.5302 37.0932C25.4129 37.0991 22.5832 38.9132 21.2805 41.741C19.7064 41.0837 17.9099 41.2369 16.4702 42.1511C14.2673 43.3814 12.668 45.7301 12.5684 47.8676C12.5638 47.9661 12.5592 48.0648 12.5545 48.1636C12.5149 49.0052 12.4751 49.8525 12.4751 50.6699C12.3568 55.0194 12.251 58.7476 10.3344 62.9418C9.84724 63.9997 9.27668 65.0577 8.72182 66.0865L8.68531 66.1542C7.20426 68.9006 5.67342 71.7402 5.5054 74.9029C5.28138 78.9977 7.5963 83.2788 11.33 85.8326ZM16.7689 42.6854C17.556 42.2207 18.4496 41.966 19.3638 41.946L19.37 41.9709C20.0373 41.9654 20.6948 42.1301 21.2805 42.4493C21.3593 42.4863 21.4506 42.4863 21.5294 42.4493C21.6089 42.422 21.674 42.3638 21.7099 42.2878C22.8573 39.5222 25.557 37.7161 28.5551 37.7084C35.226 37.4722 39.8683 41.0948 42.457 48.4765C43.2715 51.041 43.8955 53.6619 44.3239 56.3181C44.755 58.8603 45.3516 61.3718 46.1099 63.8365C46.2465 64.2505 46.3907 64.6606 46.5335 65.0669C46.573 65.179 46.6123 65.2908 46.6513 65.4023C47.2471 66.9286 47.6972 68.5076 47.9954 70.1185C48.7297 75.0831 44.8964 79.5818 41.0693 82.1355C39.3496 83.2284 37.5257 84.1483 35.6243 84.882C32.3884 86.2117 28.0697 87.7961 23.5518 88.113C19.034 88.4299 14.8211 87.4544 11.6723 85.3231C8.08791 82.8874 5.90989 78.8113 6.11525 74.934C6.28297 71.9194 7.77779 69.1402 9.21919 66.4602L9.2267 66.4462C9.79921 65.3899 10.3904 64.2963 10.8944 63.2027C12.8611 58.916 12.9722 54.9381 13.09 50.721L13.0911 50.6823C13.116 49.7565 13.1409 48.8431 13.1845 47.8924C13.2716 45.96 14.7464 43.8163 16.7689 42.6854Z" fill="#231F20"/>
<path d="M48.4123 86.8825C48.151 85.851 47.8709 84.832 47.5598 83.8192C46.7384 81.1038 45.7614 77.1644 43.8261 75.0083C40.671 71.5163 33.5707 71.4044 29.2582 71.3796C22.581 71.3423 15.7545 72.9081 10.297 76.7419C1.89608 82.6448 0.340356 91.2133 1.30491 100.77C2.41259 111.457 3.79407 122.12 5.29379 132.764C5.44314 133.857 7.24156 150.118 8.05054 150.124C8.10655 150.124 63.4344 150.168 61.6671 151.473C59.178 142.842 57.3111 134.075 55.3073 125.376C54.8842 123.512 54.1312 121.821 53.6707 120.007C53.0048 117.385 53.3098 114.508 53.0484 111.824C52.507 105.61 51.1815 99.4961 49.8872 93.4067C49.4329 91.2196 48.96 89.0386 48.4123 86.8825Z" fill="#E7816B"/>
<path d="M64.0941 164.167L57.753 136.38L6.53842 140.593L5.88501 164.167H64.0941Z" fill="#231F20"/>
<path fill-rule="evenodd" clip-rule="evenodd" d="M5.88497 164.478H64.0941C64.1775 164.468 64.2535 164.426 64.3056 164.36C64.3633 164.286 64.386 164.191 64.3679 164.099L58.0267 136.312C57.9864 136.165 57.8498 136.064 57.6969 136.07L6.48237 140.283C6.324 140.298 6.20159 140.428 6.19611 140.587L5.57382 164.161C5.57302 164.244 5.60422 164.324 5.66094 164.385C5.7203 164.445 5.80087 164.478 5.88497 164.478ZM63.7145 163.857H6.221L6.82463 140.879L57.4916 136.716L63.7145 163.857Z" fill="#231F20"/>
<path d="M33.7138 94.7867C33.8844 94.8564 34.0651 94.8984 34.249 94.9109C35.4127 94.9979 36.3274 93.9168 36.8066 92.8542C37.877 90.4869 37.877 87.7902 37.6903 85.2053C37.6546 83.6786 37.3272 82.1728 36.7257 80.7688C36.1535 79.6794 35.3857 78.7042 34.4606 77.8919C32.7991 76.3572 30.7828 75.0709 28.5364 74.7851C26.2899 74.4993 23.0042 75.7172 22.3135 78.1777C21.5916 80.8372 24.3919 83.5152 25.7485 85.4725C27.7068 88.3014 29.8479 90.9996 32.1581 93.5502C32.5754 94.0755 33.1075 94.4984 33.7138 94.7867Z" fill="#231F20"/>
<path fill-rule="evenodd" clip-rule="evenodd" d="M34.2241 95.2217H34.3859C35.9479 95.2217 36.844 93.5441 37.0867 92.9911C38.213 90.5118 38.1819 87.6847 38.0014 85.1992C37.9612 83.6318 37.6233 82.0863 37.0058 80.6447C36.4197 79.5201 35.6282 78.5149 34.6722 77.6808C32.6622 75.8167 30.6086 74.748 28.5737 74.5118C25.9726 74.2012 22.7242 75.5868 22.0335 78.1344C21.4112 80.4085 23.166 82.6517 24.5724 84.4474C24.9209 84.8948 25.2445 85.3111 25.5058 85.6901C27.4763 88.5166 29.6255 91.2147 31.9403 93.7678C32.3876 94.3247 32.9558 94.773 33.6019 95.0788C33.8023 95.153 34.0114 95.201 34.2241 95.2217ZM34.2739 94.5942C34.1199 94.5827 33.9687 94.5471 33.8259 94.4885C33.2677 94.2101 32.782 93.8059 32.4071 93.308C30.1064 90.7712 27.9736 88.0874 26.0223 85.2738C25.7588 84.923 25.4513 84.5281 25.1255 84.11C25.1051 84.0838 25.0846 84.0575 25.064 84.0311C23.7385 82.3472 22.0957 80.2408 22.6309 78.2649C23.2283 76.059 26.2028 74.8287 28.4991 75.0959C30.4033 75.3196 32.3386 76.3324 34.249 78.1033C35.1488 78.8862 35.8938 79.8304 36.4457 80.887C37.0268 82.2657 37.3434 83.7411 37.3792 85.2365C37.5534 87.6225 37.5845 90.3751 36.5204 92.7301C36.091 93.6746 35.2509 94.6812 34.2739 94.5942Z" fill="#231F20"/>
<rect x="60.5844" y="45.2705" width="87.4817" height="93.2536" fill="white"/>
<path fill-rule="evenodd" clip-rule="evenodd" d="M60.5843 138.829H148.06C148.232 138.829 148.371 138.69 148.371 138.518V45.2706C148.371 45.0991 148.232 44.96 148.06 44.96H60.5843C60.4125 44.96 60.2732 45.0991 60.2732 45.2706V138.518C60.2732 138.69 60.4125 138.829 60.5843 138.829ZM147.749 138.207H60.8955V45.5813H147.749V138.207Z" fill="#231F20"/>
<rect x="66.2285" y="52.4404" width="76.1809" height="68.4551" fill="white"/>
<path fill-rule="evenodd" clip-rule="evenodd" d="M66.2286 121.206H142.416C142.5 121.206 142.581 121.172 142.64 121.111C142.699 121.05 142.73 120.968 142.727 120.883V52.4406C142.727 52.269 142.588 52.1299 142.416 52.1299H66.2286C66.0567 52.1299 65.9174 52.269 65.9174 52.4406V120.896C65.9174 121.067 66.0567 121.206 66.2286 121.206ZM142.105 120.585H66.5397V52.7512H142.105V120.585Z" fill="#D1D3D4"/>
<path d="M133.89 76.3506C132.795 77.5561 131.75 78.8361 130.605 79.9607C127.611 83.0054 124.575 86.0066 121.556 89.0264C121.451 89.132 121.37 89.2749 121.245 89.3308C120.704 89.567 120.001 90.0889 119.64 89.9087C119.146 89.527 118.845 88.9474 118.818 88.3242C118.731 85.9941 118.787 83.664 118.787 81.1724C117.804 81.1724 116.877 81.1351 115.95 81.1724C112.446 81.3402 109.073 82.0361 106.024 83.8567C102.256 85.9438 99.8728 89.8639 99.7576 94.165C99.7897 95.3236 99.976 96.4729 100.311 97.5825C100.442 98.1666 100.772 98.8252 100.038 99.0551C99.4851 99.0573 98.9703 98.7756 98.6748 98.3095C97.7277 96.4315 96.969 94.4647 96.4096 92.4376C94.3125 82.9681 99.5211 74.2877 108.936 71.3114C111.65 70.445 114.482 70.0028 117.331 70.0004H118.781C118.781 68.1798 118.781 66.4462 118.781 64.7126C118.762 63.8808 118.819 63.0489 118.949 62.2271C119.136 61.2827 119.733 61.059 120.573 61.525C120.913 61.7377 121.223 61.9947 121.494 62.2893C125.29 66.0796 129.082 69.8761 132.87 73.6788C133.242 74.1144 133.581 74.5776 133.884 75.0644L133.89 76.3506Z" fill="#E7816B"/>
<path d="M86.5152 110.507C84.3846 110.102 82.4458 109.01 80.9955 107.4C79.6045 105.796 78.8419 103.743 78.8486 101.621C78.8486 93.376 78.7988 85.1367 78.8486 76.8913C78.8369 74.5466 79.765 72.2946 81.4261 70.6372C83.0871 68.9798 85.3431 68.0547 87.6914 68.068C89.2284 68.0307 90.7593 68.0307 92.2963 68.068C93.5409 68.068 94.325 68.8074 94.3125 69.8886C94.3001 70.9697 93.5347 71.5849 92.3212 71.5973C90.8215 71.5973 89.328 71.5973 87.8283 71.5973C86.3846 71.5514 84.9849 72.0969 83.9541 73.1074C82.9234 74.1178 82.3513 75.5051 82.3708 76.9472C82.3459 85.232 82.3459 93.5168 82.3708 101.802C82.3707 103.207 82.9339 104.553 83.9347 105.541C84.9355 106.528 86.2906 107.075 87.6976 107.058C95.8807 107.058 109.988 107.058 118.19 107.058C119.653 107.123 121.077 106.576 122.12 105.549C123.162 104.522 123.729 103.108 123.685 101.646C123.728 99.0552 123.685 96.4641 123.685 93.873C123.685 92.6303 124.22 91.9717 125.234 91.835C126.08 91.7169 127.101 92.301 127.101 93.1461C127.101 96.607 127.356 100.105 126.939 103.517C126.479 107.245 123.579 109.73 119.839 110.432C119.7 110.472 119.564 110.524 119.434 110.588L86.5152 110.507Z" fill="#E7816B"/>
<path d="M141.849 127.799H77.3364C77.1646 127.799 77.0253 127.66 77.0253 127.488C77.0253 127.317 77.1646 127.178 77.3364 127.178H141.849C142.021 127.178 142.16 127.317 142.16 127.488C142.16 127.66 142.021 127.799 141.849 127.799Z" fill="#D1D3D4"/>
<path d="M125.813 132.64H77.3364C77.1646 132.64 77.0253 132.501 77.0253 132.329C77.0253 132.158 77.1646 132.019 77.3364 132.019H125.813C125.985 132.019 126.124 132.158 126.124 132.329C126.121 132.499 125.983 132.637 125.813 132.64Z" fill="#D1D3D4"/>
<ellipse cx="69.8191" cy="128.744" rx="3.5844" ry="3.57903" fill="white"/>
<path fill-rule="evenodd" clip-rule="evenodd" d="M66.21 130.239C66.8159 131.695 68.2405 132.642 69.8192 132.64C71.9716 132.636 73.7147 130.893 73.7147 128.744C73.7147 127.167 72.7634 125.746 71.3046 125.144C69.8459 124.541 68.1672 124.876 67.0518 125.991C65.9364 127.107 65.6041 128.783 66.21 130.239ZM66.7843 127.494C67.2935 126.27 68.4916 125.473 69.8192 125.475C71.6255 125.479 73.089 126.94 73.0924 128.744C73.0949 130.069 72.2968 131.266 71.0708 131.774C69.8448 132.282 68.4327 132.003 67.494 131.065C66.5553 130.128 66.2751 128.718 66.7843 127.494Z" fill="#D1D3D4"/>
<path d="M40.2043 51.2169C40.2043 51.2169 43.3158 58.4557 42.4135 64.166C41.9687 67.419 39.639 70.1012 36.4768 71.001L37.0991 80.9738C37.0991 80.9738 37.4787 86.0689 31.1687 85.6899C27.4539 85.4566 24.1226 83.326 22.357 80.0542L20.4839 61.78C20.4839 61.78 27.3291 57.2441 26.265 50.7012C26.265 50.7012 34.9584 54.2243 40.2043 51.2169Z" fill="white"/>
<path fill-rule="evenodd" clip-rule="evenodd" d="M31.1811 86.0313H31.8532C33.7076 86.0313 35.1389 85.5342 36.1097 84.5711C37.0085 83.6006 37.4832 82.3127 37.4289 80.992L36.8066 71.2678C39.9612 70.2471 42.2562 67.5189 42.7184 64.2402C43.6518 58.505 40.6088 51.4153 40.4781 51.1171C40.4444 51.0346 40.3762 50.971 40.2915 50.9431C40.2099 50.9089 40.1179 50.9089 40.0363 50.9431C35.3626 53.6337 27.6875 50.8807 26.5306 50.4657C26.4398 50.4331 26.3891 50.415 26.3833 50.415C26.2793 50.3723 26.1603 50.3889 26.0721 50.4584C25.9837 50.5277 25.9407 50.64 25.9601 50.7505C26.9558 57.0138 20.3781 61.4751 20.3097 61.5186C20.2142 61.5838 20.1617 61.6957 20.1728 61.8107L22.077 80.1159C22.0807 80.1528 22.0913 80.1886 22.1081 80.2216C23.9392 83.5792 27.3611 85.7704 31.1811 86.0313ZM31.2185 85.3913C27.6396 85.1529 24.4277 83.114 22.6931 79.9792L20.8449 61.9536C21.8405 61.2328 27.2482 57.0262 26.6695 51.1979C28.5675 51.8938 35.4251 54.081 40.0674 51.6763C40.6462 53.1241 42.93 59.2507 42.1397 64.1408C41.7306 67.28 39.4893 69.8747 36.4395 70.7396C36.2899 70.773 36.187 70.91 36.1968 71.0627L36.8191 81.0045C36.8561 82.1504 36.4429 83.2653 35.6678 84.1113C34.7157 85.0806 33.216 85.5093 31.2185 85.3913Z" fill="#231F20"/>
<path d="M23.8567 60.2638C23.8567 60.2638 20.291 53.5407 17.1298 58.1263C13.9685 62.712 19.3202 67.1733 22.3757 66.5582" fill="white"/>
<path d="M21.7659 66.9375C20.0172 66.9375 17.9263 65.6948 16.7875 63.9364C15.5211 62.1301 15.5689 59.7138 16.9058 57.9589C17.7459 56.7162 18.7042 56.157 19.7559 56.2253C22.1641 56.3682 24.1119 59.9535 24.1617 60.1212C24.2177 60.2683 24.1546 60.434 24.015 60.5069C23.8753 60.5798 23.7031 60.5369 23.6141 60.407C23.6141 60.407 21.7472 56.9709 19.6688 56.8467C18.839 56.797 18.0736 57.2858 17.3725 58.3131C16.191 59.8627 16.1457 61.9965 17.2605 63.5946C18.4366 65.3841 20.7018 66.5834 22.301 66.2603C22.4707 66.2298 22.6337 66.3401 22.6682 66.5088C22.6846 66.5888 22.6681 66.672 22.6225 66.7398C22.5769 66.8076 22.5059 66.8542 22.4255 66.8692C22.2084 66.9133 21.9874 66.9362 21.7659 66.9375Z" fill="#231F20"/>
<path d="M37.5907 64.1219C37.0833 64.1214 36.5771 64.0736 36.0786 63.979C35.9973 63.9656 35.9252 63.9194 35.8793 63.8512C35.8333 63.7829 35.8176 63.6988 35.8359 63.6186C35.8509 63.5367 35.8983 63.4643 35.9673 63.4176C36.0363 63.3708 36.1212 63.3537 36.203 63.3701C36.203 63.3701 38.2192 63.7615 39.1713 63.1837C39.3082 62.407 37.3916 59.8035 35.9977 58.2128C35.943 58.1515 35.9155 58.0707 35.9214 57.9888C35.9272 57.9069 35.966 57.8308 36.0288 57.7779C36.1519 57.6587 36.3475 57.6587 36.4706 57.7779C37.0929 58.4613 40.0114 61.9534 39.8061 63.2334C39.7774 63.4339 39.6612 63.6114 39.4887 63.718C38.9018 64.0146 38.2477 64.1538 37.5907 64.1219Z" fill="#231F20"/>
<path d="M36.4706 71.0137C36.4706 71.0137 31.1811 72.0327 28.0696 71.4548C28.0696 71.4548 31.9216 79.0851 36.9933 78.7123L36.4706 71.0137Z" fill="#231F20"/>
<path fill-rule="evenodd" clip-rule="evenodd" d="M27.7959 71.5853C27.9203 71.9022 31.6167 79.0416 36.6324 79.0416C36.7652 79.0416 36.8958 79.0458 37.0245 79.054C37.194 79.0408 37.3214 78.8941 37.3107 78.7247L36.788 71.0261C36.7807 70.9386 36.738 70.8578 36.6697 70.8024C36.5986 70.749 36.5088 70.7266 36.4208 70.7403C36.3648 70.7527 31.15 71.7406 28.1319 71.1752C28.0138 71.1318 27.8812 71.1637 27.7959 71.256C27.7313 71.3563 27.7313 71.485 27.7959 71.5853ZM36.6386 78.4203C32.7369 78.4203 29.6254 73.5115 28.6484 71.8525C31.3429 72.1694 35.0456 71.5853 36.1595 71.3865L36.6386 78.4203Z" fill="#231F20"/>
<ellipse cx="32.9844" cy="57.0297" rx="0.78407" ry="1.37323" transform="rotate(-6.85 32.9844 57.0297)" fill="#231F20"/>
<ellipse cx="39.8073" cy="56.7836" rx="0.78407" ry="1.37323" transform="rotate(-6.85 39.8073 56.7836)" fill="#231F20"/>
<path d="M34.4419 67.1114C33.9891 67.1082 33.542 67.0108 33.1289 66.8256C31.6105 66.1669 30.6397 64.3401 30.2353 61.3514C30.2112 61.1798 30.331 61.0212 30.5028 60.9972C30.6747 60.9732 30.8335 61.0928 30.8575 61.2644C31.2309 64.0046 32.1021 65.6823 33.384 66.2353C34.9584 66.9312 36.732 65.7195 36.7506 65.7071C36.8415 65.6367 36.9639 65.6222 37.0688 65.6693C37.1737 65.7164 37.2441 65.8174 37.2517 65.932C37.2594 66.0466 37.2031 66.1561 37.1053 66.2166C36.3174 66.7549 35.3955 67.0646 34.4419 67.1114Z" fill="#231F20"/>
<path d="M118.047 138.841C117.944 138.153 117.877 137.46 117.848 136.765C117.801 135.322 118.027 133.882 118.513 132.522C118.662 131.916 118.995 131.371 119.466 130.962C119.969 130.567 120.691 130.618 121.133 131.08C121.376 131.578 121.398 132.155 121.196 132.671C120.871 134.114 120.798 135.602 120.978 137.07C121.214 135.094 121.476 133.043 122.552 131.378C122.776 130.988 123.095 130.661 123.479 130.428C123.872 130.193 124.362 130.193 124.755 130.428C125.309 130.831 125.265 131.67 125.197 132.329C125.022 134.068 125.049 135.822 125.278 137.555C125.154 136.031 125.265 134.496 125.608 133.006C125.832 132.031 126.273 130.956 127.226 130.645C127.426 130.575 127.641 130.562 127.848 130.608C128.283 130.755 128.601 131.13 128.675 131.583C128.747 132.028 128.747 132.481 128.675 132.925C128.496 134.675 128.55 136.441 128.837 138.176C128.613 136.654 128.67 135.104 129.005 133.603C129.093 133.002 129.333 132.433 129.702 131.95C130.088 131.459 130.743 131.267 131.333 131.471C131.754 131.695 132.046 132.101 132.123 132.571C132.196 133.036 132.212 133.507 132.173 133.976C132.13 135.747 132.459 137.508 133.137 139.145C133.697 140.506 134.425 142.016 134.295 143.538C134.061 145.152 132.956 146.507 131.42 147.061C129.901 147.586 128.264 147.664 126.703 147.285C121.556 146.266 117.306 143.818 115.502 138.903" fill="white"/>
<path d="M128.881 147.856C128.135 147.852 127.39 147.775 126.659 147.626C120.735 146.452 116.883 143.563 115.203 139.039C115.141 138.868 115.23 138.679 115.402 138.617C115.574 138.555 115.763 138.644 115.825 138.816C117.418 143.115 121.115 145.868 126.802 146.993C128.303 147.363 129.878 147.292 131.339 146.788C132.759 146.277 133.784 145.029 134.009 143.538C134.121 142.252 133.579 140.965 133.056 139.729L132.876 139.288C132.184 137.608 131.847 135.804 131.886 133.988V133.77C131.919 133.401 131.905 133.029 131.843 132.664C131.779 132.293 131.55 131.971 131.221 131.788C130.765 131.654 130.273 131.809 129.976 132.179C129.644 132.624 129.43 133.146 129.354 133.696C129.021 135.157 128.964 136.668 129.186 138.151C129.212 138.325 129.093 138.489 128.918 138.517C128.759 138.538 128.609 138.437 128.57 138.281C128.276 136.517 128.222 134.722 128.408 132.944V132.838C128.467 132.461 128.467 132.078 128.408 131.701C128.352 131.36 128.113 131.078 127.786 130.968C127.63 130.936 127.469 130.947 127.319 130.999C126.665 131.21 126.193 131.931 125.912 133.124C125.577 134.582 125.47 136.082 125.595 137.573C125.574 137.718 125.457 137.831 125.31 137.847C125.164 137.863 125.025 137.778 124.973 137.641C124.741 135.884 124.713 134.105 124.892 132.341C124.954 131.72 124.985 131.036 124.581 130.738C124.293 130.567 123.935 130.567 123.647 130.738C123.309 130.942 123.028 131.228 122.832 131.571C121.774 133.211 121.532 135.299 121.314 137.163C121.292 137.322 121.157 137.441 120.996 137.442C120.836 137.441 120.701 137.322 120.679 137.163C120.493 135.66 120.566 134.136 120.897 132.658C121.077 132.233 121.077 131.753 120.897 131.328C120.794 131.189 120.639 131.099 120.467 131.08C120.191 131.039 119.91 131.108 119.683 131.272C119.266 131.644 118.973 132.134 118.843 132.677C118.363 133.995 118.141 135.394 118.19 136.796C118.19 137.014 118.221 137.206 118.233 137.386C118.255 137.876 118.307 138.364 118.389 138.847C118.381 138.997 118.269 139.122 118.12 139.148C117.971 139.173 117.824 139.092 117.767 138.952C117.682 138.449 117.628 137.94 117.605 137.43C117.605 137.25 117.605 137.057 117.561 136.846C117.509 135.366 117.742 133.889 118.246 132.496C118.414 131.827 118.786 131.226 119.31 130.775C119.67 130.517 120.115 130.406 120.555 130.465C120.895 130.512 121.201 130.693 121.407 130.968C121.716 131.542 121.759 132.223 121.525 132.832C121.523 132.865 121.523 132.898 121.525 132.931C121.727 132.361 121.992 131.815 122.316 131.303C122.571 130.868 122.933 130.504 123.367 130.247C123.869 129.953 124.494 129.97 124.979 130.291C125.601 130.763 125.601 131.633 125.601 132.235C125.825 131.43 126.412 130.775 127.188 130.465C127.452 130.371 127.737 130.356 128.01 130.421C128.573 130.6 128.988 131.081 129.08 131.664C129.137 131.948 129.154 132.239 129.13 132.527C129.238 132.303 129.376 132.093 129.54 131.906C130.015 131.304 130.826 131.077 131.544 131.347C132.055 131.614 132.414 132.103 132.515 132.67C132.588 133.08 132.611 133.498 132.583 133.913V134.131C132.55 135.857 132.869 137.571 133.523 139.17L133.704 139.605C134.233 140.847 134.83 142.27 134.705 143.718C134.471 145.456 133.285 146.918 131.631 147.508C130.746 147.803 129.812 147.921 128.881 147.856Z" fill="#231F20"/>
<path d="M183.151 104.144L182.205 118.398C182.205 118.398 152.957 95.4079 148.06 94.4199V98.4401C148.06 98.4401 139.927 97.4459 139.279 99.0615C138.632 100.677 139.734 106.816 141.849 108.059C143.094 108.811 153.604 108.873 153.604 108.873C153.604 108.873 155.092 112.514 169.591 125.854C184.09 139.195 197.731 146.328 198.584 133.833C199.436 121.337 200.519 100.279 200.519 100.279" fill="white"/>
<path d="M193.219 140.612C188.073 140.612 179.598 135.479 169.373 126.072C156.623 114.335 153.903 110.091 153.405 109.177C151.669 109.177 142.932 109.053 141.688 108.32C139.36 106.947 138.284 100.658 138.981 98.9248C139.678 97.1912 145.776 97.8312 147.742 98.0487V94.3889C147.744 94.2928 147.787 94.202 147.861 94.1404C147.936 94.0811 148.033 94.0563 148.128 94.072C152.752 95.0041 177.998 114.651 181.925 117.74L182.827 104.107C182.8 103.973 182.86 103.837 182.977 103.766C183.094 103.696 183.243 103.706 183.349 103.792C183.455 103.878 183.495 104.022 183.449 104.15L182.528 118.398C182.522 118.517 182.447 118.622 182.336 118.665C182.227 118.716 182.1 118.702 182.006 118.628C181.726 118.404 154.14 96.7501 148.402 94.8177V98.4153C148.403 98.5075 148.365 98.5956 148.296 98.6577C148.227 98.7208 148.134 98.7504 148.041 98.7384C144.768 98.3345 139.951 98.2041 139.597 99.1672C139.005 100.64 140.082 106.623 142.03 107.773C142.907 108.289 149.441 108.512 153.623 108.543C153.754 108.542 153.873 108.621 153.922 108.742C153.922 108.773 155.646 112.551 169.828 125.606C181.464 136.3 190.674 141.389 195.155 139.643C197.022 138.903 198.061 136.933 198.266 133.796C199.106 121.449 200.189 100.447 200.202 100.242C200.205 100.157 200.242 100.077 200.305 100.019C200.369 99.962 200.452 99.9326 200.538 99.9377C200.623 99.9408 200.703 99.9782 200.761 100.041C200.818 100.105 200.848 100.188 200.843 100.273C200.843 100.484 199.747 121.493 198.907 133.827C198.671 137.232 197.488 139.419 195.379 140.22C194.691 140.488 193.958 140.621 193.219 140.612Z" fill="#231F20"/>
<path d="M182.205 118.367L189.218 123.587L182.205 118.367Z" fill="white"/>
<path d="M189.218 123.909C189.15 123.906 189.083 123.884 189.025 123.847L182.012 118.628C181.872 118.518 181.845 118.317 181.95 118.174C182.057 118.035 182.256 118.008 182.398 118.112L189.411 123.331C189.519 123.416 189.562 123.559 189.519 123.688C189.476 123.818 189.355 123.907 189.218 123.909Z" fill="#231F20"/>
<path d="M20.0048 92.6363C20.0048 92.6363 32.0025 114.881 32.3261 115.751C32.4381 116.043 57.0497 102.882 57.9521 101.087C57.6564 99.0707 57.855 97.0132 58.5308 95.0906C58.9291 94.0405 59.6634 93.91 60.5346 93.1706C60.4225 94.4828 60.3975 95.8008 60.4599 97.1163C62.1114 95.3729 63.8966 93.7608 65.7991 92.2945C66.2013 91.8698 66.7919 91.678 67.3673 91.785C67.6254 91.9148 67.8412 92.1152 67.9896 92.3629C70.541 95.9481 68.4128 100.254 66.5832 103.609C63.1357 109.922 57.9707 113.843 52.4821 118.255C48.8271 121.172 45.024 123.899 41.088 126.426C38.0402 128.484 34.7994 130.243 31.4113 131.676C29.3827 132.484 26.5824 133.54 24.4292 132.534C16.6195 128.917 7.66472 110.438 5.21912 102.305" fill="white"/>
<path d="M26.4642 133.255C25.7269 133.266 24.9961 133.115 24.3235 132.814C19.899 130.769 15.4869 124.32 12.5684 119.268C9.45054 113.924 6.89786 108.27 4.95155 102.398C4.92324 102.243 5.01579 102.091 5.16681 102.045C5.31784 101.999 5.47945 102.073 5.54273 102.218C8.03189 110.581 17.0551 128.769 24.5848 132.254C26.5388 133.155 29.0902 132.254 31.3242 131.391C34.6899 129.962 37.9096 128.212 40.9386 126.165C44.868 123.644 48.6648 120.923 52.3141 118.013L53.26 117.249C58.3317 113.191 63.1171 109.357 66.3281 103.461C68.2634 99.9189 70.1241 95.8676 67.7532 92.5434C67.6339 92.3426 67.4588 92.1807 67.2491 92.0774C66.8571 91.922 66.3655 92.2451 66.0045 92.5372C64.1187 93.9982 62.3463 95.5996 60.7026 97.3278C60.6184 97.4161 60.4902 97.4471 60.3748 97.4069C60.2595 97.3667 60.1784 97.2629 60.1674 97.1414C60.1177 96.5698 60.1239 94.9045 60.1674 93.8358L59.9496 93.9849C59.437 94.2489 59.0386 94.6909 58.8295 95.2276C58.1785 97.0977 57.9843 99.0959 58.2632 101.056C58.2846 101.118 58.2846 101.186 58.2632 101.249C57.7405 102.293 50.8766 106.257 45.1951 109.395C41.9592 111.19 32.9298 116.093 32.3386 116.093C32.2121 116.084 32.1013 116.005 32.0523 115.888C31.8034 115.217 23.8941 100.497 19.7496 92.8106C19.6671 92.6596 19.7229 92.4704 19.8741 92.388C20.0253 92.3057 20.2148 92.3613 20.2972 92.5123C20.764 93.3822 31.2309 112.8 32.5128 115.403C35.226 114.322 56.2968 102.752 57.6285 101C57.3478 98.9682 57.5613 96.8988 58.2508 94.9667C58.5098 94.3174 58.9903 93.7804 59.6074 93.4506C59.8645 93.2871 60.1118 93.1087 60.3479 92.9162C60.4466 92.8306 60.5883 92.8157 60.7026 92.8789C60.814 92.9433 60.8755 93.0684 60.8582 93.1958C60.7645 94.2452 60.7291 95.299 60.7524 96.3523C62.2721 94.7921 63.8981 93.3388 65.6187 92.0028C66.129 91.6113 66.8073 91.1888 67.4856 91.4498C67.8097 91.5995 68.0839 91.8389 68.2759 92.1395C71.0638 96.0541 68.4501 100.839 66.8882 103.715C63.6149 109.718 58.7984 113.589 53.6583 117.69L52.7062 118.454C49.0451 121.38 45.2335 124.114 41.2871 126.644C38.2229 128.713 34.9656 130.481 31.5607 131.925C29.957 132.674 28.2299 133.125 26.4642 133.255Z" fill="#231F20"/>
<path d="M20.0048 92.9219C19.8943 92.9213 19.7924 92.8621 19.7372 92.7666L13.7134 82.5079C13.6258 82.3587 13.6759 82.1667 13.8254 82.0792C13.9749 81.9917 14.1672 82.0418 14.2548 82.191L20.291 92.4808C20.3336 92.5513 20.3457 92.6361 20.3246 92.7157C20.3035 92.7953 20.2509 92.863 20.179 92.9033C20.1244 92.9279 20.0634 92.9345 20.0048 92.9219Z" fill="#231F20"/>
<path d="M183.151 104.467C183.067 104.459 182.989 104.418 182.935 104.352C182.881 104.287 182.856 104.203 182.865 104.119L184.19 89.6971C184.21 89.5234 184.364 89.3967 184.539 89.4113C184.625 89.4158 184.705 89.4558 184.761 89.5218C184.816 89.5878 184.841 89.6738 184.831 89.7593L183.499 104.175C183.493 104.26 183.452 104.339 183.387 104.394C183.321 104.449 183.236 104.475 183.151 104.467Z" fill="#231F20"/>
<defs>
<linearGradient id="paint0_linear" x1="0" y1="202" x2="202" y2="202" gradientUnits="userSpaceOnUse">
<stop stop-color="#5D0202" stop-opacity="0.01"/>
<stop offset="1" stop-color="#5D0202" stop-opacity="0.497569"/>
</linearGradient>
</defs>
</svg>
